<?xml version="1.0" encoding="UTF-8"?>
<svg version="1.1" xmlns="http://www.w3.org/2000/svg" width="399" height="495">
<path d="M0 0 C6.87786726 4.07529705 10.09257117 9.41552851 12.77734375 16.73828125 C14.5224848 21.79724283 14.5224848 21.79724283 17.65234375 26.05078125 C19.55337375 26.70248165 21.47341796 27.29947831 23.40234375 27.86328125 C29.73468569 29.91844851 33.74338544 31.81878252 37.23046875 37.72265625 C38.81838272 41.43942191 39.41956333 44.94661254 39.83984375 48.92578125 C39.92169922 49.61414062 40.00355469 50.3025 40.08789062 51.01171875 C40.28605113 52.69025482 40.47062162 54.37038606 40.65234375 56.05078125 C42.42640846 56.03412666 42.42640846 56.03412666 44.23631287 56.01713562 C55.40297789 55.91560955 66.56954881 55.84074371 77.73657131 55.79172039 C83.47716503 55.76566928 89.21738501 55.73035258 94.95776367 55.67358398 C100.50153826 55.61910515 106.04495421 55.58932699 111.58897591 55.57639503 C113.70002955 55.56718369 115.81106441 55.549196 117.92196465 55.52213097 C120.88777367 55.48563013 123.85211637 55.48084474 126.81811523 55.4831543 C128.11608536 55.45618973 128.11608536 55.45618973 129.4402771 55.42868042 C135.77365614 55.48175897 140.60191767 57.15847742 145.65234375 61.05078125 C150.31087881 66.87908393 151.78140229 71.68198957 151.71484375 79.14916992 C151.70539888 80.63958076 151.69621519 82.12999327 151.68725586 83.6204071 C151.68096161 84.41001013 151.67466736 85.19961315 151.66818237 86.01314354 C151.64115518 90.2034158 151.6510918 94.39364932 151.65625 98.58398438 C151.66245217 103.9126276 151.65720504 109.24021093 151.60107422 114.56860352 C151.55666002 118.87799171 151.5563382 123.18543187 151.58520508 127.49492836 C151.58827535 129.13231526 151.57548578 130.76981554 151.54614258 132.40694237 C151.17925487 141.56290315 151.17925487 141.56290315 154.59301758 149.77114868 C156.84992103 151.79804023 159.09796772 153.42433253 161.65234375 155.05078125 C162.94007213 156.11397647 164.21404386 157.19437802 165.46484375 158.30078125 C166.10550781 158.86152344 166.74617188 159.42226562 167.40625 160 C170.30091541 162.64295537 173.11210213 165.36068273 175.90234375 168.11328125 C176.40999268 168.60795898 176.9176416 169.10263672 177.44067383 169.61230469 C180.6809944 172.84459274 183.1311332 176.21166519 185.65234375 180.05078125 C186.61914062 181.00210938 186.61914062 181.00210938 187.60546875 181.97265625 C190.38099703 184.79055901 192.33082803 187.94529831 194.40234375 191.30078125 C194.83772461 192.00388428 195.27310547 192.7069873 195.72167969 193.43139648 C206.16779523 210.57134319 213.65173667 228.3764936 217.65234375 248.05078125 C217.86761719 249.08460938 218.08289063 250.1184375 218.3046875 251.18359375 C226.21613418 291.7225395 216.3024516 335.23893315 193.4296875 369.3671875 C184.50709406 381.52847185 174.06850083 395.28643508 161.65234375 404.05078125 C160.99234375 404.05078125 160.33234375 404.05078125 159.65234375 404.05078125 C159.65234375 404.71078125 159.65234375 405.37078125 159.65234375 406.05078125 C158.511604 406.62546143 157.37086426 407.2001416 156.19555664 407.79223633 C153.46740809 409.68593079 152.74736145 410.61559784 152.02902222 413.90560913 C151.87806598 416.98796381 151.83401865 420.04119615 151.910429 423.12631798 C151.9616896 425.21819222 151.96961073 427.30642225 151.96681213 429.39888 C151.96890292 433.84604934 152.02689154 438.29162055 152.08984375 442.73828125 C152.15846272 447.87814901 152.20349493 453.01669876 152.20121956 458.15705299 C152.21071468 460.2020114 152.25678613 462.24389875 152.30503845 464.28825378 C152.32513957 472.68687627 151.11131089 478.50084425 145.65234375 485.05078125 C141.15622472 489.19344122 136.5755516 490.17291848 130.62222672 490.18500233 C129.6020446 490.18946017 128.58186249 490.19391801 127.53076577 490.19851094 C126.41171719 490.19832658 125.29266861 490.19814222 124.13970947 490.19795227 C122.94953901 490.20162896 121.75936855 490.20530565 120.53313231 490.20909375 C117.22834117 490.21821257 113.92359964 490.22282851 110.61880064 490.22548306 C107.05494129 490.22938975 103.49109628 490.23896774 99.92724609 490.24769592 C91.32072184 490.26744852 82.71419642 490.27752436 74.10765517 490.28642371 C70.05416832 490.290808 66.00068278 490.29617439 61.94719696 490.30141258 C48.47216691 490.31842256 34.99713768 490.33291716 21.52209854 490.34016132 C18.02612558 490.34207119 14.53015262 490.34399153 11.03417969 490.34594727 C10.16528066 490.34643101 9.29638164 490.34691475 8.40115234 490.34741315 C-5.67732413 490.35571511 -19.75571567 490.38105585 -33.83415505 490.41352794 C-48.28944066 490.44659738 -62.74468309 490.46460992 -77.20000672 490.46780556 C-85.31568053 490.46997061 -93.43123044 490.47871863 -101.54686737 490.50426674 C-108.45771186 490.52597206 -115.36840235 490.53402497 -122.27927706 490.52429996 C-125.8043802 490.51975491 -129.32916559 490.52165297 -132.85422516 490.5410614 C-136.67864442 490.56193599 -140.50262592 490.55170893 -144.3270874 490.53852844 C-145.43721309 490.54949769 -146.54733879 490.56046693 -147.69110465 490.57176858 C-155.23766872 490.50893583 -160.33801128 489.23217909 -166.37109375 484.4453125 C-166.81710938 483.92324219 -167.263125 483.40117187 -167.72265625 482.86328125 C-168.18414062 482.35410156 -168.645625 481.84492188 -169.12109375 481.3203125 C-173.60191486 473.02936644 -172.61493952 463.02763429 -172.56365967 453.89924622 C-172.56183159 452.25408506 -172.56088483 450.60892272 -172.56073976 448.96376055 C-172.55777089 444.45780018 -172.54222924 439.9519585 -172.5245626 435.44603503 C-172.5076799 430.58101476 -172.502451 425.71597985 -172.49571228 420.85093689 C-172.48062715 411.32700763 -172.45462149 401.80313819 -172.42469659 392.27924518 C-172.40058 384.54019595 -172.38042789 376.80114581 -172.36310577 369.06207848 C-172.36063688 367.96043645 -172.35816798 366.85879442 -172.35562427 365.7237693 C-172.35062638 363.48581152 -172.3456378 361.24785371 -172.34065846 359.00989588 C-172.2935168 338.03016601 -172.23401019 317.05048514 -172.17025235 296.07080009 C-172.11581712 278.06487494 -172.0718877 260.05894915 -172.03564453 242.05297852 C-171.99355145 221.14342706 -171.94503801 200.23390694 -171.88620687 179.32439536 C-171.87995311 177.09560917 -171.87370739 174.86682296 -171.86746979 172.63803673 C-171.86439713 171.54142 -171.86132446 170.44480328 -171.85815869 169.31495574 C-171.83693494 161.5826599 -171.82030756 153.85036195 -171.80544281 146.11805153 C-171.78720765 136.69886719 -171.76190925 127.27973356 -171.72751561 117.86059383 C-171.71014133 113.05382472 -171.69596007 108.2471023 -171.69035912 103.4403038 C-171.68514298 99.04183368 -171.67079248 94.64349235 -171.6490964 90.24507352 C-171.64284778 88.65238938 -171.63995867 87.05968785 -171.640735 85.46699164 C-171.64128946 83.30439116 -171.62965192 81.1421848 -171.6149559 78.97964191 C-171.61159343 77.77776936 -171.60823097 76.5758968 -171.60476661 75.33760387 C-171.11575282 69.08619652 -169.03333332 64.27434094 -164.34765625 60.05078125 C-158.52956311 56.11311313 -153.2406469 55.46624723 -146.3515625 55.50488281 C-145.3847908 55.49454514 -144.4180191 55.48420746 -143.42195129 55.47355652 C-140.25118064 55.44424197 -137.08105148 55.44263172 -133.91015625 55.44140625 C-131.70197338 55.42641698 -129.49380169 55.40968827 -127.28564453 55.39129639 C-121.49232453 55.34769483 -115.69915577 55.32763958 -109.90570068 55.31256104 C-103.98652227 55.29296413 -98.06750654 55.25099695 -92.1484375 55.2109375 C-80.54822735 55.13571318 -68.94805376 55.0853745 -57.34765625 55.05078125 C-57.16589844 54.03757813 -56.98414062 53.024375 -56.796875 51.98046875 C-56.54344043 50.62881772 -56.2895076 49.27726006 -56.03515625 47.92578125 C-55.91720703 47.260625 -55.79925781 46.59546875 -55.67773438 45.91015625 C-54.61489667 40.35069751 -53.12227921 35.816288 -49.06640625 31.78125 C-45.99181564 29.82429075 -43.39554388 29.14663494 -39.84765625 28.36328125 C-35.25312517 27.0320586 -32.66485246 26.17044314 -30.28515625 21.92578125 C-29.58454765 20.32363479 -28.93968083 18.69614826 -28.34765625 17.05078125 C-25.53913269 9.62746799 -23.47030984 4.89737539 -16.72265625 0.23828125 C-11.21380711 -1.70001752 -5.51344458 -2.22922967 0 0 Z M-12.66015625 15.67578125 C-14.82663923 18.72490545 -14.89389783 20.38315919 -14.34765625 24.05078125 C-13.4116831 26.07029187 -13.4116831 26.07029187 -11.34765625 27.05078125 C-7.84765625 27.71744792 -7.84765625 27.71744792 -4.34765625 27.05078125 C-2.08714622 25.03336043 -2.08714622 25.03336043 -1.34765625 22.05078125 C-2.10938316 18.51913829 -2.78637037 16.61206713 -5.34765625 14.05078125 C-8.62124711 13.53389848 -9.9253774 13.75404476 -12.66015625 15.67578125 Z M-140.34765625 86.05078125 C-140.47735428 117.34366388 -140.60501801 148.63655388 -140.72983852 179.92945631 C-140.74484464 183.69108942 -140.75986811 187.45272247 -140.77490234 191.21435547 C-140.77789296 191.96269365 -140.78088357 192.71103183 -140.78396481 193.48204693 C-140.82555108 203.87921986 -140.86805969 214.27638863 -140.9113493 224.6735546 C-141.27090551 310.40158123 -141.27090551 310.40158123 -141.43577576 396.13014984 C-141.43903739 400.43065696 -141.44442113 404.73115237 -141.45179749 409.03165436 C-141.46003723 413.97444923 -141.46321301 418.91722111 -141.462286 423.86002254 C-141.46268013 425.63373654 -141.4647026 427.40745115 -141.46859169 429.18116093 C-141.473538 431.59945812 -141.47208617 434.01767538 -141.46911621 436.43597412 C-141.47192738 437.10779386 -141.47473855 437.7796136 -141.47763491 438.47179151 C-141.45576593 445.39233302 -140.8449717 452.08836502 -140.34765625 459.05078125 C-54.54765625 459.05078125 31.25234375 459.05078125 119.65234375 459.05078125 C119.98234375 449.15078125 120.31234375 439.25078125 120.65234375 429.05078125 C115.93243191 429.83743322 111.76517922 430.92038568 107.27734375 432.42578125 C77.40399212 442.09859175 44.69425988 441.51132577 14.65234375 433.05078125 C13.99766113 432.8717627 13.34297852 432.69274414 12.66845703 432.50830078 C-9.81376581 426.29618054 -32.17299924 414.54205431 -48.62109375 397.7265625 C-50.1858351 395.81862279 -50.1858351 395.81862279 -52.34765625 396.05078125 C-52.84265625 394.56578125 -52.84265625 394.56578125 -53.34765625 393.05078125 C-55.22273787 390.84220465 -55.22273787 390.84220465 -57.34765625 389.05078125 C-58.00765625 389.05078125 -58.66765625 389.05078125 -59.34765625 389.05078125 C-59.74984375 388.16326172 -59.74984375 388.16326172 -60.16015625 387.2578125 C-61.35795865 385.0316337 -62.60702116 383.5584165 -64.34765625 381.73828125 C-85.04546299 358.46398404 -96.10047018 328.30740745 -100.09765625 297.86328125 C-100.2255957 296.90212402 -100.35353516 295.9409668 -100.48535156 294.95068359 C-101.99771795 282.38526202 -101.45052714 270.24315232 -99.66015625 257.73828125 C-99.48009033 256.47081055 -99.30002441 255.20333984 -99.11450195 253.89746094 C-97.67567953 244.28236568 -95.7454643 235.16028409 -92.34765625 226.05078125 C-92.08581543 225.34566406 -91.82397461 224.64054688 -91.55419922 223.9140625 C-86.49654301 210.55310044 -80.10239372 198.25354989 -71.94921875 186.51171875 C-70.21492659 184.07329544 -70.21492659 184.07329544 -69.34765625 181.05078125 C-68.68765625 181.05078125 -68.02765625 181.05078125 -67.34765625 181.05078125 C-65.6704451 179.20426461 -65.6704451 179.20426461 -63.97265625 176.86328125 C-63.35132812 176.0434375 -62.73 175.22359375 -62.08984375 174.37890625 C-61.22746094 173.22648437 -61.22746094 173.22648437 -60.34765625 172.05078125 C-58.01852517 169.00997123 -56.54030928 167.1792166 -53.34765625 165.05078125 C-53.34765625 164.39078125 -53.34765625 163.73078125 -53.34765625 163.05078125 C-52.77273437 162.79683594 -52.1978125 162.54289062 -51.60546875 162.28125 C-49.09217202 160.91154676 -47.30766926 159.32134697 -45.22265625 157.36328125 C-40.53793906 153.12254053 -35.60174304 149.54818249 -30.34765625 146.05078125 C-29.54070312 145.48617187 -28.73375 144.9215625 -27.90234375 144.33984375 C-16.49498089 136.63028047 -3.34940512 131.43484203 9.65234375 127.05078125 C10.38066406 126.7878125 11.10898438 126.52484375 11.859375 126.25390625 C44.21713911 114.82665982 81.53184611 116.92742726 113.65234375 128.05078125 C114.34110596 128.40970459 115.02986816 128.76862793 115.73950195 129.13842773 C117.75042518 130.26603195 117.75042518 130.26603195 120.65234375 130.05078125 C120.65234375 115.53078125 120.65234375 101.01078125 120.65234375 86.05078125 C112.40234375 86.05078125 104.15234375 86.05078125 95.65234375 86.05078125 C97.30234375 89.35078125 98.95234375 92.65078125 100.65234375 96.05078125 C101.46484375 100.17578125 101.46484375 100.17578125 101.65234375 103.05078125 C73.39362886 103.20455109 45.13488901 103.35258788 16.87610817 103.49374485 C3.75593117 103.55941675 -9.36423101 103.62698539 -22.484375 103.69897461 C-33.91600868 103.76169434 -45.34765415 103.82090081 -56.77932799 103.87583679 C-62.83579646 103.90506578 -68.89224407 103.93608904 -74.94868088 103.97131538 C-80.64321451 104.00438137 -86.33775185 104.0327681 -92.03232765 104.05748749 C-94.12782122 104.06742295 -96.22330732 104.07910235 -98.3187809 104.09261131 C-101.16885092 104.11073017 -104.01888087 104.12270588 -106.86898804 104.1330719 C-107.70749813 104.13987569 -108.54600823 104.14667948 -109.40992773 104.15368944 C-115.11941383 104.16490246 -115.11941383 104.16490246 -117.34765625 103.05078125 C-117.34765625 97.05078125 -117.34765625 97.05078125 -112.34765625 86.05078125 C-121.58765625 86.05078125 -130.82765625 86.05078125 -140.34765625 86.05078125 Z M50.359375 146.13671875 C28.17352143 147.20899246 7.48856463 154.55883724 -11.34765625 166.05078125 C-12.67173294 166.7356485 -14.00097249 167.41151209 -15.34765625 168.05078125 C-15.34765625 168.71078125 -15.34765625 169.37078125 -15.34765625 170.05078125 C-16.07855469 170.31117188 -16.80945313 170.5715625 -17.5625 170.83984375 C-20.41249148 172.07897048 -22.48574417 173.49468433 -24.91015625 175.42578125 C-25.65394531 176.01101562 -26.39773437 176.59625 -27.1640625 177.19921875 C-29.35725108 179.05891712 -31.41466604 180.92054715 -33.34765625 183.05078125 C-33.34765625 183.71078125 -33.34765625 184.37078125 -33.34765625 185.05078125 C-34.66765625 185.71078125 -35.98765625 186.37078125 -37.34765625 187.05078125 C-37.34765625 187.71078125 -37.34765625 188.37078125 -37.34765625 189.05078125 C-38.33765625 189.38078125 -39.32765625 189.71078125 -40.34765625 190.05078125 C-42.01400454 191.93319246 -43.53256091 193.79434745 -45.03515625 195.80078125 C-45.47649902 196.38641846 -45.9178418 196.97205566 -46.37255859 197.57543945 C-56.71244591 211.49681316 -65.14530189 227.12854892 -69.34765625 244.05078125 C-69.61191406 244.98921875 -69.87617187 245.92765625 -70.1484375 246.89453125 C-79.37375447 280.82271121 -72.35049583 317.88716333 -55.34765625 348.05078125 C-40.07645472 373.51430055 -17.05438079 391.16939119 9.65234375 403.05078125 C10.5954541 403.47037109 10.5954541 403.47037109 11.55761719 403.8984375 C40.65734116 416.62271099 77.37394614 415.23925163 106.74731445 404.26831055 C108.69076185 403.4792617 110.61148277 402.65455174 112.52734375 401.80078125 C113.21296387 401.4955957 113.89858398 401.19041016 114.60498047 400.87597656 C130.45268268 393.68557588 143.70875288 383.63547939 155.65234375 371.05078125 C156.46960938 370.25414062 157.286875 369.4575 158.12890625 368.63671875 C172.52814951 353.88083789 182.14537386 334.71853085 187.65234375 315.05078125 C188.08546875 313.62765625 188.08546875 313.62765625 188.52734375 312.17578125 C188.79546875 311.26828125 189.06359375 310.36078125 189.33984375 309.42578125 C189.57058594 308.64976562 189.80132812 307.87375 190.0390625 307.07421875 C196.42139202 275.60974073 191.16393405 241.91535173 175.65234375 214.05078125 C174.87890625 212.65279297 174.87890625 212.65279297 174.08984375 211.2265625 C169.56733246 203.39819378 164.43814101 195.1045008 157.65234375 189.05078125 C156.99234375 189.05078125 156.33234375 189.05078125 155.65234375 189.05078125 C155.38035156 188.45523438 155.10835937 187.8596875 154.828125 187.24609375 C146.27088858 171.26879518 121.98082202 159.72261645 105.65234375 154.05078125 C104.92104248 153.79659424 104.18974121 153.54240723 103.4362793 153.28051758 C91.29580093 149.15194618 79.55178241 146.38038363 66.65234375 146.05078125 C65.57339844 146.02242187 64.49445313 145.9940625 63.3828125 145.96484375 C59.03692258 145.91229369 54.70353453 146.02334804 50.359375 146.13671875 Z " fill="#A0C3FD" transform="translate(176.34765625,4.94921875)"/>
<path d="M0 0 C4.01589475 0.56302246 5.27918134 1.8873517 8.0234375 4.81640625 C8.80460938 5.62851563 9.58578125 6.440625 10.390625 7.27734375 C12.1484375 9.44140625 12.1484375 9.44140625 12.1484375 11.44140625 C12.9528125 11.78171875 12.9528125 11.78171875 13.7734375 12.12890625 C19.38739068 15.23135406 24.67210617 20.01983536 28.1484375 25.44140625 C28.53664648 29.32349604 26.56171811 31.35751236 24.2109375 34.25390625 C22.62109375 36.0859375 22.62109375 36.0859375 21.1484375 37.44140625 C20.4884375 37.44140625 19.8284375 37.44140625 19.1484375 37.44140625 C18.4884375 38.76140625 17.8284375 40.08140625 17.1484375 41.44140625 C16.4884375 41.44140625 15.8284375 41.44140625 15.1484375 41.44140625 C15.1484375 42.10140625 15.1484375 42.76140625 15.1484375 43.44140625 C13.5261921 45.15134059 11.85430325 46.81488309 10.1484375 48.44140625 C9.5915625 49.03953125 9.0346875 49.63765625 8.4609375 50.25390625 C7.1484375 51.44140625 7.1484375 51.44140625 5.1484375 51.44140625 C4.4884375 52.76140625 3.8284375 54.08140625 3.1484375 55.44140625 C2.4884375 55.44140625 1.8284375 55.44140625 1.1484375 55.44140625 C0.8184375 56.43140625 0.4884375 57.42140625 0.1484375 58.44140625 C-0.5115625 58.44140625 -1.1715625 58.44140625 -1.8515625 58.44140625 C-2.5115625 59.76140625 -3.1715625 61.08140625 -3.8515625 62.44140625 C-4.5115625 62.44140625 -5.1715625 62.44140625 -5.8515625 62.44140625 C-6.1196875 63.03953125 -6.3878125 63.63765625 -6.6640625 64.25390625 C-7.85073656 66.43988479 -8.94755363 67.85473219 -10.8515625 69.44140625 C-11.5115625 69.44140625 -12.1715625 69.44140625 -12.8515625 69.44140625 C-13.25375 70.33859375 -13.25375 70.33859375 -13.6640625 71.25390625 C-14.85073656 73.43988479 -15.94755363 74.85473219 -17.8515625 76.44140625 C-18.5115625 76.44140625 -19.1715625 76.44140625 -19.8515625 76.44140625 C-20.25375 77.33859375 -20.25375 77.33859375 -20.6640625 78.25390625 C-21.85073656 80.43988479 -22.94755363 81.85473219 -24.8515625 83.44140625 C-25.5115625 83.44140625 -26.1715625 83.44140625 -26.8515625 83.44140625 C-27.8415625 85.42140625 -27.8415625 85.42140625 -28.8515625 87.44140625 C-29.5115625 87.44140625 -30.1715625 87.44140625 -30.8515625 87.44140625 C-31.25375 88.33859375 -31.25375 88.33859375 -31.6640625 89.25390625 C-32.85073656 91.43988479 -33.94755363 92.85473219 -35.8515625 94.44140625 C-36.5115625 94.44140625 -37.1715625 94.44140625 -37.8515625 94.44140625 C-38.25375 95.33859375 -38.25375 95.33859375 -38.6640625 96.25390625 C-39.85073656 98.43988479 -40.94755363 99.85473219 -42.8515625 101.44140625 C-43.5115625 101.44140625 -44.1715625 101.44140625 -44.8515625 101.44140625 C-45.23828125 102.31539062 -45.23828125 102.31539062 -45.6328125 103.20703125 C-46.94990267 105.62169655 -48.40244634 107.25880802 -50.3515625 109.19140625 C-50.96 109.805 -51.5684375 110.41859375 -52.1953125 111.05078125 C-53.8515625 112.44140625 -53.8515625 112.44140625 -55.8515625 112.44140625 C-56.25375 113.33859375 -56.25375 113.33859375 -56.6640625 114.25390625 C-57.85073656 116.43988479 -58.94755363 117.85473219 -60.8515625 119.44140625 C-61.5115625 119.44140625 -62.1715625 119.44140625 -62.8515625 119.44140625 C-63.25375 120.33859375 -63.25375 120.33859375 -63.6640625 121.25390625 C-64.85073656 123.43988479 -65.94755363 124.85473219 -67.8515625 126.44140625 C-68.5115625 126.44140625 -69.1715625 126.44140625 -69.8515625 126.44140625 C-70.25375 127.33859375 -70.25375 127.33859375 -70.6640625 128.25390625 C-71.85073656 130.43988479 -72.94755363 131.85473219 -74.8515625 133.44140625 C-75.5115625 133.44140625 -76.1715625 133.44140625 -76.8515625 133.44140625 C-77.5115625 134.76140625 -78.1715625 136.08140625 -78.8515625 137.44140625 C-79.5115625 137.44140625 -80.1715625 137.44140625 -80.8515625 137.44140625 C-81.1196875 138.03953125 -81.3878125 138.63765625 -81.6640625 139.25390625 C-82.85073656 141.43988479 -83.94755363 142.85473219 -85.8515625 144.44140625 C-86.5115625 144.44140625 -87.1715625 144.44140625 -87.8515625 144.44140625 C-88.315625 145.40046875 -88.315625 145.40046875 -88.7890625 146.37890625 C-89.8515625 148.44140625 -89.8515625 148.44140625 -90.8515625 149.44140625 C-92.9765625 149.87890625 -92.9765625 149.87890625 -95.8515625 149.44140625 C-99.60693534 146.96354609 -102.65408573 143.79568579 -105.4765625 140.31640625 C-107.68493674 137.43771371 -107.68493674 137.43771371 -110.2265625 135.56640625 C-113.20931212 133.15179941 -115.54055264 130.46602408 -118.0078125 127.5390625 C-122.03901815 122.952712 -126.54262639 118.78082143 -130.90681458 114.5144043 C-134.15002605 111.33798292 -137.38015062 108.14839379 -140.60961914 104.95800781 C-142.31712995 103.27579225 -144.02907911 101.59807028 -145.74536133 99.92480469 C-148.22615089 97.50449905 -150.69058183 95.06854376 -153.15234375 92.62890625 C-153.92411453 91.88294189 -154.69588531 91.13697754 -155.49104309 90.3684082 C-156.1956517 89.66417725 -156.90026031 88.95994629 -157.6262207 88.234375 C-158.25067581 87.62102295 -158.87513092 87.0076709 -159.51850891 86.37573242 C-161.24680632 83.86788808 -161.27030037 82.42958364 -160.8515625 79.44140625 C-159.12452222 77.25375936 -157.4782841 75.43721003 -155.48828125 73.51953125 C-154.94049515 72.97407654 -154.39270905 72.42862183 -153.82832336 71.86663818 C-152.6697908 70.71783513 -151.50525054 69.57506339 -150.33520508 68.43798828 C-148.54374894 66.69596338 -146.77167879 64.93594502 -145.00195312 63.171875 C-143.87348371 62.05749105 -142.74396096 60.94417252 -141.61328125 59.83203125 C-141.08192062 59.30603333 -140.55056 58.7800354 -140.00309753 58.23809814 C-137.62630027 55.93725409 -136.03358733 54.50208119 -132.8515625 53.44140625 C-131.06677246 54.62272644 -131.06677246 54.62272644 -129.12304688 56.43041992 C-128.41688232 57.08134613 -127.71071777 57.73227234 -126.9831543 58.40292358 C-126.279729 59.07562286 -125.57630371 59.74832214 -124.8515625 60.44140625 C-124.23514893 61.02894684 -123.61873535 61.61648743 -122.98364258 62.22183228 C-121.14185104 64.00432134 -119.32182871 65.80645411 -117.5078125 67.6171875 C-116.85325073 68.26842087 -116.19868896 68.91965424 -115.52429199 69.59062195 C-114.15845093 70.95144665 -112.79391822 72.31358573 -111.43066406 73.67700195 C-109.33416981 75.77128056 -107.22976436 77.85739627 -105.125 79.94335938 C-103.79378327 81.27164695 -102.4630365 82.60040574 -101.1328125 83.9296875 C-100.50169556 84.55361893 -99.87057861 85.17755035 -99.22033691 85.82038879 C-94.8515625 90.21254713 -94.8515625 90.21254713 -94.8515625 92.44140625 C-94.1915625 92.44140625 -93.5315625 92.44140625 -92.8515625 92.44140625 C-92.3565625 90.95640625 -92.3565625 90.95640625 -91.8515625 89.44140625 C-89.6017811 86.94840524 -87.7038999 84.8553987 -84.6640625 83.37890625 C-82.31355146 82.16312468 -81.97907981 80.77160869 -80.8515625 78.44140625 C-79.8615625 78.11140625 -78.8715625 77.78140625 -77.8515625 77.44140625 C-77.8515625 76.78140625 -77.8515625 76.12140625 -77.8515625 75.44140625 C-75.47843106 72.86486355 -73.05088421 70.59697442 -70.2890625 68.44140625 C-67.77736149 66.52359807 -67.77736149 66.52359807 -65.9140625 64.00390625 C-63.52523487 61.0359689 -60.77815201 58.86985286 -57.8515625 56.44140625 C-56.84582472 55.11239561 -55.84360842 53.78066824 -54.8515625 52.44140625 C-54.1915625 52.44140625 -53.5315625 52.44140625 -52.8515625 52.44140625 C-52.8515625 51.78140625 -52.8515625 51.12140625 -52.8515625 50.44140625 C-51.41165695 49.23590393 -49.96774866 48.03472384 -48.5 46.86328125 C-45.95492196 44.66800066 -43.9665873 42.0445137 -41.8515625 39.44140625 C-38.99750963 36.43308025 -35.99860711 33.69631214 -32.8515625 31.00390625 C-30.39400818 28.88294004 -28.19263709 26.78802467 -26.1640625 24.25390625 C-23.91455944 21.51802414 -21.60425644 19.6435614 -18.8515625 17.44140625 C-17.645 15.98734375 -17.645 15.98734375 -16.4140625 14.50390625 C-13.79728541 11.37653851 -10.97719283 9.04609819 -7.8515625 6.44140625 C-7.00137718 5.35016229 -6.16769023 4.24585029 -5.3515625 3.12890625 C-2.8515625 0.44140625 -2.8515625 0.44140625 0 0 Z " fill="#A0C3FD" transform="translate(305.8515625,217.55859375)"/>
<path d="M0 0 C11.88 0 23.76 0 36 0 C34.02 2.97 32.04 5.94 30 9 C29.01 12.3 28.02 15.6 27 19 C98.61 19 170.22 19 244 19 C240.77197535 7.35535373 240.77197535 7.35535373 235 0 C245.23 0 255.46 0 266 0 C266 16.17 266 32.34 266 49 C256 46 256 46 253.15917969 45.14038086 C250.69249402 44.39558391 248.22146624 43.66626569 245.75 42.9375 C244.91082031 42.68162109 244.07164062 42.42574219 243.20703125 42.16210938 C230.33202749 38.39641279 217.53814568 37.64949296 204.21508789 37.68432617 C201.70089144 37.68748318 199.18788011 37.6639375 196.67382812 37.63867188 C181.5901688 37.57747887 167.50728082 39.63609589 153.1875 44.5625 C152.1783252 44.90619629 151.16915039 45.24989258 150.12939453 45.60400391 C134.33405923 51.16671973 120.20308299 58.73853653 107 69 C106.16984375 69.6084375 105.3396875 70.216875 104.484375 70.84375 C90.2019181 81.62653203 78.54131725 94.93961323 69 110 C68.61908203 110.60021973 68.23816406 111.20043945 67.84570312 111.81884766 C58.73349515 126.43051208 52.25057675 141.97889679 48.50390625 158.76953125 C48.04925757 160.78196841 47.54328945 162.7826444 47.03125 164.78125 C38.1956722 204.37772829 48.10236621 247.5577925 69.5 281.375 C73.31325586 287.21282793 77.46756233 292.70337226 82 298 C83.02867188 299.21236328 83.02867188 299.21236328 84.078125 300.44921875 C94.41061098 312.28697696 105.81237523 321.58208644 119 330 C119.57975586 330.37253906 120.15951172 330.74507813 120.75683594 331.12890625 C144.9543966 346.44131475 173.75837157 353.44633204 202.1875 353.4375 C202.92378632 353.4385675 203.66007263 353.43963501 204.41867065 353.44073486 C223.68554595 353.40075186 242.0246954 350.19339845 260 343.13671875 C263 342 263 342 265 342 C265 353.55 265 365.1 265 377 C177.55 377 90.1 377 0 377 C0 252.59 0 128.18 0 0 Z M3 2 C2.87030197 33.29288263 2.74263824 64.58577263 2.61781773 95.87867506 C2.60281161 99.64030817 2.58778814 103.40194122 2.57275391 107.16357422 C2.56976329 107.9119124 2.56677268 108.66025058 2.56369144 109.43126568 C2.52210517 119.82843861 2.47959656 130.22560738 2.43630695 140.62277335 C2.07675074 226.35079998 2.07675074 226.35079998 1.91188049 312.07936859 C1.90861886 316.37987571 1.90323512 320.68037112 1.89585876 324.98087311 C1.88761902 329.92366798 1.88444324 334.86643986 1.88537025 339.80924129 C1.88497612 341.58295529 1.88295365 343.3566699 1.87906456 345.13037968 C1.87411825 347.54867687 1.87557008 349.96689413 1.87854004 352.38519287 C1.87572887 353.05701261 1.8729177 353.72883235 1.87002134 354.42101026 C1.89189032 361.34155177 2.50268455 368.03758377 3 375 C88.8 375 174.6 375 263 375 C263.33 365.1 263.66 355.2 264 345 C259.28008816 345.78665197 255.11283547 346.86960443 250.625 348.375 C220.75164837 358.0478105 188.04191613 357.46054452 158 349 C157.34531738 348.82098145 156.69063477 348.64196289 156.01611328 348.45751953 C133.53389044 342.24539929 111.17465701 330.49127306 94.7265625 313.67578125 C93.16182115 311.76784154 93.16182115 311.76784154 91 312 C90.505 310.515 90.505 310.515 90 309 C88.12491838 306.7914234 88.12491838 306.7914234 86 305 C85.34 305 84.68 305 84 305 C83.5978125 304.11248047 83.5978125 304.11248047 83.1875 303.20703125 C81.9896976 300.98085245 80.74063509 299.50763525 79 297.6875 C58.30219326 274.41320279 47.24718607 244.2566262 43.25 213.8125 C43.12206055 212.85134277 42.99412109 211.89018555 42.86230469 210.89990234 C41.3499383 198.33448077 41.89712911 186.19237107 43.6875 173.6875 C43.86756592 172.4200293 44.04763184 171.15255859 44.2331543 169.84667969 C45.67197672 160.23158443 47.60219195 151.10950284 51 142 C51.26184082 141.29488281 51.52368164 140.58976563 51.79345703 139.86328125 C56.85111324 126.50231919 63.24526253 114.20276864 71.3984375 102.4609375 C73.13272966 100.02251419 73.13272966 100.02251419 74 97 C74.66 97 75.32 97 76 97 C77.67721115 95.15348336 77.67721115 95.15348336 79.375 92.8125 C79.99632813 91.99265625 80.61765625 91.1728125 81.2578125 90.328125 C82.12019531 89.17570312 82.12019531 89.17570312 83 88 C85.32913108 84.95918998 86.80734697 83.12843535 90 81 C90 80.34 90 79.68 90 79 C90.57492188 78.74605469 91.14984375 78.49210937 91.7421875 78.23046875 C94.25548423 76.86076551 96.03998699 75.27056572 98.125 73.3125 C102.80971719 69.07175928 107.74591321 65.49740124 113 62 C113.80695313 61.43539062 114.61390625 60.87078125 115.4453125 60.2890625 C126.85267536 52.57949922 139.99825113 47.38406078 153 43 C153.72832031 42.73703125 154.45664063 42.4740625 155.20703125 42.203125 C187.56479536 30.77587857 224.87950236 32.87664601 257 44 C257.68876221 44.35892334 258.37752441 44.71784668 259.0871582 45.08764648 C261.09808143 46.2152507 261.09808143 46.2152507 264 46 C264 31.48 264 16.96 264 2 C255.75 2 247.5 2 239 2 C240.65 5.3 242.3 8.6 244 12 C244.8125 16.125 244.8125 16.125 245 19 C216.74128511 19.15376984 188.48254526 19.30180663 160.22376442 19.4429636 C147.10358742 19.5086355 133.98342524 19.57620414 120.86328125 19.64819336 C109.43164757 19.71091309 98.0000021 19.77011956 86.56832826 19.82505554 C80.51185979 19.85428453 74.45541218 19.88530779 68.39897537 19.92053413 C62.70444174 19.95360012 57.0099044 19.98198685 51.3153286 20.00670624 C49.21983503 20.0166417 47.12434893 20.0283211 45.02887535 20.04183006 C42.17880533 20.05994892 39.32877538 20.07192463 36.47866821 20.08229065 C35.64015812 20.08909444 34.80164802 20.09589823 33.93772852 20.10290819 C28.22824242 20.11412121 28.22824242 20.11412121 26 19 C26 13 26 13 31 2 C21.76 2 12.52 2 3 2 Z " fill="#F3F7FE" transform="translate(33,89)"/>
<path d="M0 0 C6.87786726 4.07529705 10.09257117 9.41552851 12.77734375 16.73828125 C14.5224848 21.79724283 14.5224848 21.79724283 17.65234375 26.05078125 C19.55337375 26.70248165 21.47341796 27.29947831 23.40234375 27.86328125 C29.73468569 29.91844851 33.74338544 31.81878252 37.23046875 37.72265625 C38.81838272 41.43942191 39.41956333 44.94661254 39.83984375 48.92578125 C39.92169922 49.61414062 40.00355469 50.3025 40.08789062 51.01171875 C40.28605113 52.69025482 40.47062162 54.37038606 40.65234375 56.05078125 C42.42640846 56.03412666 42.42640846 56.03412666 44.23631287 56.01713562 C55.40297789 55.91560955 66.56954881 55.84074371 77.73657131 55.79172039 C83.47716503 55.76566928 89.21738501 55.73035258 94.95776367 55.67358398 C100.50153826 55.61910515 106.04495421 55.58932699 111.58897591 55.57639503 C113.70002955 55.56718369 115.81106441 55.549196 117.92196465 55.52213097 C120.88777367 55.48563013 123.85211637 55.48084474 126.81811523 55.4831543 C128.11608536 55.45618973 128.11608536 55.45618973 129.4402771 55.42868042 C135.77365614 55.48175897 140.60191767 57.15847742 145.65234375 61.05078125 C150.31087881 66.87908393 151.78140229 71.68198957 151.71484375 79.14916992 C151.70539888 80.63958076 151.69621519 82.12999327 151.68725586 83.6204071 C151.68096161 84.41001013 151.67466736 85.19961315 151.66818237 86.01314354 C151.64115518 90.2034158 151.6510918 94.39364932 151.65625 98.58398438 C151.66245217 103.9126276 151.65720504 109.24021093 151.60107422 114.56860352 C151.55666002 118.87799171 151.5563382 123.18543187 151.58520508 127.49492836 C151.58827535 129.13231526 151.57548578 130.76981554 151.54614258 132.40694237 C151.17925487 141.56290315 151.17925487 141.56290315 154.59301758 149.77114868 C156.84992103 151.79804023 159.09796772 153.42433253 161.65234375 155.05078125 C162.94007213 156.11397647 164.21404386 157.19437802 165.46484375 158.30078125 C166.10550781 158.86152344 166.74617188 159.42226562 167.40625 160 C170.30091541 162.64295537 173.11210213 165.36068273 175.90234375 168.11328125 C176.40999268 168.60795898 176.9176416 169.10263672 177.44067383 169.61230469 C180.6809944 172.84459274 183.1311332 176.21166519 185.65234375 180.05078125 C186.61914062 181.00210938 186.61914062 181.00210938 187.60546875 181.97265625 C190.38099703 184.79055901 192.33082803 187.94529831 194.40234375 191.30078125 C194.83772461 192.00388428 195.27310547 192.7069873 195.72167969 193.43139648 C206.16779523 210.57134319 213.65173667 228.3764936 217.65234375 248.05078125 C217.86761719 249.08460938 218.08289063 250.1184375 218.3046875 251.18359375 C226.21613418 291.7225395 216.3024516 335.23893315 193.4296875 369.3671875 C184.50709406 381.52847185 174.06850083 395.28643508 161.65234375 404.05078125 C160.99234375 404.05078125 160.33234375 404.05078125 159.65234375 404.05078125 C159.65234375 404.71078125 159.65234375 405.37078125 159.65234375 406.05078125 C158.511604 406.62546143 157.37086426 407.2001416 156.19555664 407.79223633 C153.46740809 409.68593079 152.74736145 410.61559784 152.02902222 413.90560913 C151.87806598 416.98796381 151.83401865 420.04119615 151.910429 423.12631798 C151.9616896 425.21819222 151.96961073 427.30642225 151.96681213 429.39888 C151.96890292 433.84604934 152.02689154 438.29162055 152.08984375 442.73828125 C152.15846272 447.87814901 152.20349493 453.01669876 152.20121956 458.15705299 C152.21071468 460.2020114 152.25678613 462.24389875 152.30503845 464.28825378 C152.32513957 472.68687627 151.11131089 478.50084425 145.65234375 485.05078125 C141.15622472 489.19344122 136.5755516 490.17291848 130.62222672 490.18500233 C129.6020446 490.18946017 128.58186249 490.19391801 127.53076577 490.19851094 C126.41171719 490.19832658 125.29266861 490.19814222 124.13970947 490.19795227 C122.94953901 490.20162896 121.75936855 490.20530565 120.53313231 490.20909375 C117.22834117 490.21821257 113.92359964 490.22282851 110.61880064 490.22548306 C107.05494129 490.22938975 103.49109628 490.23896774 99.92724609 490.24769592 C91.32072184 490.26744852 82.71419642 490.27752436 74.10765517 490.28642371 C70.05416832 490.290808 66.00068278 490.29617439 61.94719696 490.30141258 C48.47216691 490.31842256 34.99713768 490.33291716 21.52209854 490.34016132 C18.02612558 490.34207119 14.53015262 490.34399153 11.03417969 490.34594727 C10.16528066 490.34643101 9.29638164 490.34691475 8.40115234 490.34741315 C-5.67732413 490.35571511 -19.75571567 490.38105585 -33.83415505 490.41352794 C-48.28944066 490.44659738 -62.74468309 490.46460992 -77.20000672 490.46780556 C-85.31568053 490.46997061 -93.43123044 490.47871863 -101.54686737 490.50426674 C-108.45771186 490.52597206 -115.36840235 490.53402497 -122.27927706 490.52429996 C-125.8043802 490.51975491 -129.32916559 490.52165297 -132.85422516 490.5410614 C-136.67864442 490.56193599 -140.50262592 490.55170893 -144.3270874 490.53852844 C-145.43721309 490.54949769 -146.54733879 490.56046693 -147.69110465 490.57176858 C-155.23766872 490.50893583 -160.33801128 489.23217909 -166.37109375 484.4453125 C-166.81710938 483.92324219 -167.263125 483.40117187 -167.72265625 482.86328125 C-168.18414062 482.35410156 -168.645625 481.84492188 -169.12109375 481.3203125 C-173.60191486 473.02936644 -172.61493952 463.02763429 -172.56365967 453.89924622 C-172.56183159 452.25408506 -172.56088483 450.60892272 -172.56073976 448.96376055 C-172.55777089 444.45780018 -172.54222924 439.9519585 -172.5245626 435.44603503 C-172.5076799 430.58101476 -172.502451 425.71597985 -172.49571228 420.85093689 C-172.48062715 411.32700763 -172.45462149 401.80313819 -172.42469659 392.27924518 C-172.40058 384.54019595 -172.38042789 376.80114581 -172.36310577 369.06207848 C-172.36063688 367.96043645 -172.35816798 366.85879442 -172.35562427 365.7237693 C-172.35062638 363.48581152 -172.3456378 361.24785371 -172.34065846 359.00989588 C-172.2935168 338.03016601 -172.23401019 317.05048514 -172.17025235 296.07080009 C-172.11581712 278.06487494 -172.0718877 260.05894915 -172.03564453 242.05297852 C-171.99355145 221.14342706 -171.94503801 200.23390694 -171.88620687 179.32439536 C-171.87995311 177.09560917 -171.87370739 174.86682296 -171.86746979 172.63803673 C-171.86439713 171.54142 -171.86132446 170.44480328 -171.85815869 169.31495574 C-171.83693494 161.5826599 -171.82030756 153.85036195 -171.80544281 146.11805153 C-171.78720765 136.69886719 -171.76190925 127.27973356 -171.72751561 117.86059383 C-171.71014133 113.05382472 -171.69596007 108.2471023 -171.69035912 103.4403038 C-171.68514298 99.04183368 -171.67079248 94.64349235 -171.6490964 90.24507352 C-171.64284778 88.65238938 -171.63995867 87.05968785 -171.640735 85.46699164 C-171.64128946 83.30439116 -171.62965192 81.1421848 -171.6149559 78.97964191 C-171.61159343 77.77776936 -171.60823097 76.5758968 -171.60476661 75.33760387 C-171.11575282 69.08619652 -169.03333332 64.27434094 -164.34765625 60.05078125 C-158.52956311 56.11311313 -153.2406469 55.46624723 -146.3515625 55.50488281 C-145.3847908 55.49454514 -144.4180191 55.48420746 -143.42195129 55.47355652 C-140.25118064 55.44424197 -137.08105148 55.44263172 -133.91015625 55.44140625 C-131.70197338 55.42641698 -129.49380169 55.40968827 -127.28564453 55.39129639 C-121.49232453 55.34769483 -115.69915577 55.32763958 -109.90570068 55.31256104 C-103.98652227 55.29296413 -98.06750654 55.25099695 -92.1484375 55.2109375 C-80.54822735 55.13571318 -68.94805376 55.0853745 -57.34765625 55.05078125 C-57.16589844 54.03757813 -56.98414062 53.024375 -56.796875 51.98046875 C-56.54344043 50.62881772 -56.2895076 49.27726006 -56.03515625 47.92578125 C-55.91720703 47.260625 -55.79925781 46.59546875 -55.67773438 45.91015625 C-54.61489667 40.35069751 -53.12227921 35.816288 -49.06640625 31.78125 C-45.99181564 29.82429075 -43.39554388 29.14663494 -39.84765625 28.36328125 C-35.25312517 27.0320586 -32.66485246 26.17044314 -30.28515625 21.92578125 C-29.58454765 20.32363479 -28.93968083 18.69614826 -28.34765625 17.05078125 C-25.53913269 9.62746799 -23.47030984 4.89737539 -16.72265625 0.23828125 C-11.21380711 -1.70001752 -5.51344458 -2.22922967 0 0 Z M-22.39453125 7.71875 C-24.84609139 11.9011116 -26.41053184 16.17421139 -27.97070312 20.74804688 C-29.14473065 23.92463906 -30.07660734 25.83718769 -32.76171875 27.953125 C-35.17524269 28.97759664 -37.20275116 29.54831741 -39.78515625 29.92578125 C-44.4392709 30.88603119 -47.08323432 32.47546199 -50.34765625 36.05078125 C-52.78957061 40.93460997 -53.626716 45.44172666 -54.42578125 50.83203125 C-54.60012695 51.99798828 -54.77447266 53.16394531 -54.95410156 54.36523438 C-55.08397461 55.25146484 -55.21384766 56.13769531 -55.34765625 57.05078125 C-57.20355125 57.05958061 -57.20355125 57.05958061 -59.09693909 57.06855774 C-70.76478923 57.1258047 -82.43245335 57.19857694 -94.10011387 57.28649616 C-100.09838578 57.33119736 -106.0965898 57.37045427 -112.0949707 57.3972168 C-117.88522645 57.42325192 -123.67522094 57.4636564 -129.46531487 57.51396751 C-131.67282801 57.5306347 -133.88038634 57.54214989 -136.08795357 57.54839516 C-139.18334376 57.55803759 -142.27806576 57.5860996 -145.37329102 57.6184082 C-146.28319794 57.61697311 -147.19310486 57.61553802 -148.13058472 57.61405945 C-154.36498329 57.7059094 -159.4875307 58.49262115 -164.30859375 62.8046875 C-164.77523437 63.40152344 -165.241875 63.99835938 -165.72265625 64.61328125 C-166.20476562 65.21269531 -166.686875 65.81210938 -167.18359375 66.4296875 C-169.65987859 69.87820498 -169.47479576 72.38644073 -169.47908401 76.60515213 C-169.48113665 77.28945358 -169.48318928 77.97375503 -169.48530412 78.67879289 C-169.49100331 80.99464021 -169.48951329 83.3104286 -169.48809814 85.62628174 C-169.49068011 87.29427654 -169.4936928 88.96227073 -169.49710155 90.63026404 C-169.50519464 95.23180215 -169.5069624 99.83332467 -169.50769901 104.43486905 C-169.50954558 109.39069112 -169.51709091 114.34650502 -169.52383423 119.30232239 C-169.53743468 130.14730117 -169.54344499 140.99227626 -169.54784489 151.83726215 C-169.55060454 158.60504803 -169.55484139 165.37283247 -169.55934906 172.14061737 C-169.57154419 190.86724381 -169.58184287 209.5938691 -169.58522415 228.32049942 C-169.58544372 229.51980236 -169.58566328 230.71910531 -169.5858895 231.95475076 C-169.58610778 233.15697574 -169.58632606 234.35920072 -169.58655095 235.59785676 C-169.58699442 238.0341506 -169.58744099 240.47044444 -169.58789062 242.90673828 C-169.58811205 244.1152324 -169.58833348 245.32372652 -169.58856162 246.56884167 C-169.59251044 266.15502021 -169.60996591 285.74116156 -169.63325015 305.32732573 C-169.65694585 325.42130001 -169.6694252 345.51525562 -169.67059207 365.60924411 C-169.67150986 376.89724422 -169.6772882 388.18519589 -169.69541168 399.47318268 C-169.71078868 409.08466121 -169.71594737 418.69607634 -169.70767358 428.30756482 C-169.70375849 433.21356536 -169.70473844 438.11943812 -169.71873093 443.02542305 C-169.7314185 447.51485817 -169.73031779 452.00406884 -169.71814021 456.49350342 C-169.71617425 458.11938294 -169.71930289 459.74527809 -169.72798458 461.37113562 C-169.73902804 463.57871288 -169.73162423 465.7854911 -169.71959305 467.99304581 C-169.72019014 469.21997721 -169.72078722 470.44690861 -169.72140241 471.71101975 C-169.11663258 477.11518765 -167.00852303 480.97911478 -162.78515625 484.36328125 C-162.18574219 484.85441406 -161.58632812 485.34554688 -160.96875 485.8515625 C-158.03078194 488.02495092 -156.15374136 488.17771496 -152.5480175 488.18500233 C-151.52833409 488.18946017 -150.50865068 488.19391801 -149.45806777 488.19851094 C-148.32930256 488.19832658 -147.20053735 488.19814222 -146.03756714 488.19795227 C-144.24874939 488.2034673 -144.24874939 488.2034673 -142.42379391 488.20909375 C-139.10308254 488.21823265 -135.78242065 488.22283293 -132.46170139 488.22548306 C-128.8841735 488.22938182 -125.30665997 488.23896057 -121.72914124 488.24769592 C-113.08321992 488.26747429 -104.43729741 488.27752908 -95.79135913 488.28642371 C-91.72093262 488.29080508 -87.65050742 488.29617235 -83.58008194 488.30141258 C-70.0502315 488.31842757 -56.52038188 488.33292141 -42.99052238 488.34016132 C-39.47805658 488.34207126 -35.96559078 488.34399158 -32.453125 488.34594727 C-31.58010436 488.34643101 -30.70708372 488.34691475 -29.8076079 488.34741315 C-15.66757242 488.3557121 -1.52762158 488.38104552 12.61237694 488.41352794 C27.12635987 488.44659784 41.64029979 488.46461009 56.1543206 488.46780556 C64.30467656 488.46997092 72.45490916 488.47872305 80.60522842 488.50426674 C87.54722934 488.52597295 94.48907695 488.53402465 101.43110795 488.52429996 C104.97239877 488.51975473 108.51337329 488.52165386 112.05462074 488.5410614 C115.89666267 488.56193523 119.73826882 488.55170913 123.58035278 488.53852844 C124.69573366 488.54949769 125.81111454 488.56046693 126.96029484 488.57176858 C134.26144581 488.51125609 140.06779443 487.58966752 145.4921875 482.234375 C145.85441406 481.65816406 146.21664063 481.08195312 146.58984375 480.48828125 C146.97011719 479.90949219 147.35039062 479.33070313 147.7421875 478.734375 C149.72915403 475.05891331 149.75309135 472.05730226 149.69897461 467.9621582 C149.68664291 466.7068782 149.67431122 465.45159821 149.66160583 464.15827942 C149.64973142 463.15209029 149.64973142 463.15209029 149.63761711 462.12557411 C149.59538429 457.81226295 149.60734525 453.49867123 149.60750484 449.18519306 C149.60451064 445.40052333 149.58389018 441.61750305 149.52563477 437.83325195 C149.47023306 434.16555566 149.46407385 430.50061806 149.49032784 426.83263206 C149.49155682 425.44081079 149.47522915 424.04885126 149.44041252 422.65746498 C149.18280117 411.78522262 149.18280117 411.78522262 152.85745239 407.44818115 C155.3693129 405.42801865 157.8992615 403.72020181 160.65234375 402.05078125 C164.06901135 399.13712305 167.3686428 396.11316694 170.65234375 393.05078125 C171.45414062 392.31472656 172.2559375 391.57867187 173.08203125 390.8203125 C198.38943082 366.68530045 216.7770917 328.46214808 218.03755188 293.26403809 C218.12005566 289.31696961 218.12018865 285.37344039 218.08984375 281.42578125 C218.08578018 280.18086411 218.08578018 280.18086411 218.08163452 278.91079712 C218.01596738 265.61040513 217.04502214 252.9621889 213.65234375 240.05078125 C213.45979004 239.28056641 213.26723633 238.51035156 213.06884766 237.71679688 C210.60226596 227.98235083 207.22271741 219.01534637 202.65234375 210.05078125 C202.32218262 209.38546387 201.99202148 208.72014648 201.65185547 208.03466797 C196.81476277 198.30508756 191.58672391 189.4742751 184.65234375 181.05078125 C184.19988281 180.49293945 183.74742187 179.93509766 183.28125 179.36035156 C172.30776962 165.2815546 172.30776962 165.2815546 158.19140625 154.87216187 C155.05347018 153.2210825 152.97973758 151.74474407 150.65234375 149.05078125 C149.20752952 143.30636681 149.44268763 137.69254346 149.59765625 131.8046875 C149.60403416 130.10750953 149.60540744 128.41030608 149.60202026 126.71311951 C149.60386727 122.25503022 149.66182976 117.79958257 149.73529053 113.34216309 C149.84514516 106.21356985 149.87729794 99.08457199 149.89464951 91.95524406 C149.90987648 89.4752536 149.95376253 86.99702208 150.00149536 84.51747131 C150.13985329 73.7169145 150.13985329 73.7169145 145.65234375 64.05078125 C143.95924561 62.19565311 143.95924561 62.19565311 142.08984375 61.11328125 C141.22166016 60.54287109 141.22166016 60.54287109 140.3359375 59.9609375 C137.40138763 58.37451031 134.91828781 57.92249577 131.64704895 57.89256287 C130.83516617 57.88277405 130.02328339 57.87298523 129.1867981 57.86289978 C128.29991302 57.85714432 127.41302795 57.85138885 126.49926758 57.84545898 C125.56248672 57.83555939 124.62570587 57.82565979 123.66053772 57.81546021 C120.56017597 57.78384036 117.45979889 57.75908579 114.359375 57.734375 C112.21131489 57.7138059 110.06325883 57.69280944 107.91520691 57.67140198 C102.25830362 57.61617682 96.60136378 57.56676945 90.94439697 57.51855469 C85.17318463 57.46834294 79.40202545 57.41265517 73.63085938 57.35742188 C62.3047329 57.24983485 50.97856029 57.14839104 39.65234375 57.05078125 C38.36296667 52.65520709 37.35857423 48.4688685 36.77734375 43.92578125 C36.00799128 39.2572106 35.46170318 36.15841658 31.65234375 33.05078125 C27.85538924 31.18125681 23.92419091 30.12208542 19.83984375 29.05078125 C16.55916976 28.02155019 15.68983094 27.67356286 13.65234375 25.05078125 C12.83419919 22.84571356 12.09265336 20.61164881 11.40234375 18.36328125 C8.90159845 11.07948396 5.87350224 5.71677609 -0.72265625 1.55078125 C-9.11015947 -0.04683841 -16.89873833 0.55534053 -22.39453125 7.71875 Z " fill="#F1F6FE" transform="translate(176.34765625,4.94921875)"/>
<path d="M0 0 C0.77706299 0.61681641 0.77706299 0.61681641 1.56982422 1.24609375 C23.29526341 18.63160401 39.2796085 41.19647359 47.36669922 67.91113281 C47.77313496 69.25171268 48.19534099 70.58766951 48.63720703 71.91699219 C55.67610142 93.46280825 54.48471818 122.43430912 48 144 C47.79632813 144.70995117 47.59265625 145.41990234 47.3828125 146.15136719 C37.53149841 179.67319986 14.09197725 208.87133572 -16.49316406 225.70678711 C-37.89822827 237.10234032 -59.08431002 242.41801339 -83.375 242.3125 C-84.05420502 242.31034485 -84.73341003 242.3081897 -85.43319702 242.30596924 C-95.5989368 242.254296 -105.16811524 241.82280548 -115 239 C-116.05453369 238.70198486 -116.05453369 238.70198486 -117.13037109 238.39794922 C-152.58652584 228.15471905 -182.5656244 205.09677881 -200.875 172.9375 C-207.47213487 160.94549819 -212.00395977 148.3459974 -215 135 C-215.17877686 134.23647217 -215.35755371 133.47294434 -215.54174805 132.6862793 C-217.16844374 124.98030659 -217.33909907 117.36148591 -217.31567383 109.52270508 C-217.31252941 107.33298127 -217.33600254 105.14463461 -217.36132812 102.95507812 C-217.50104487 72.10020466 -205.31172932 42.1080491 -185 19 C-184.24074219 18.0925 -183.48148438 17.185 -182.69921875 16.25 C-167.79057587 -1.12134942 -147.36401625 -13.31262573 -126 -21 C-124.95457031 -21.38027344 -123.90914063 -21.76054687 -122.83203125 -22.15234375 C-81.90349151 -35.89893821 -33.63544074 -26.7935232 0 0 Z M-91.29296875 -25.9140625 C-113.47882232 -24.84178879 -134.16377912 -17.49194401 -153 -6 C-154.32407669 -5.31513275 -155.65331624 -4.63926916 -157 -4 C-157 -3.34 -157 -2.68 -157 -2 C-157.73089844 -1.73960937 -158.46179688 -1.47921875 -159.21484375 -1.2109375 C-162.06483523 0.02818923 -164.13808792 1.44390308 -166.5625 3.375 C-167.30628906 3.96023437 -168.05007812 4.54546875 -168.81640625 5.1484375 C-171.00959483 7.00813587 -173.06700979 8.8697659 -175 11 C-175 11.66 -175 12.32 -175 13 C-176.32 13.66 -177.64 14.32 -179 15 C-179 15.66 -179 16.32 -179 17 C-179.99 17.33 -180.98 17.66 -182 18 C-183.66634829 19.88241121 -185.18490466 21.7435662 -186.6875 23.75 C-187.12884277 24.33563721 -187.57018555 24.92127441 -188.02490234 25.5246582 C-198.36478966 39.44603191 -206.79764564 55.07776767 -211 72 C-211.26425781 72.9384375 -211.52851563 73.876875 -211.80078125 74.84375 C-221.02609822 108.77192996 -214.00283958 145.83638208 -197 176 C-181.72879847 201.4635193 -158.70672454 219.11860994 -132 231 C-131.05688965 231.41958984 -131.05688965 231.41958984 -130.09472656 231.84765625 C-100.99500259 244.57192974 -64.27839761 243.18847038 -34.9050293 232.2175293 C-32.9615819 231.42848045 -31.04086098 230.60377049 -29.125 229.75 C-28.43937988 229.44481445 -27.75375977 229.13962891 -27.04736328 228.82519531 C-11.19966107 221.63479463 2.05640913 211.58469814 14 199 C14.81726563 198.20335937 15.63453125 197.40671875 16.4765625 196.5859375 C30.87580576 181.83005664 40.49303011 162.6677496 46 143 C46.433125 141.576875 46.433125 141.576875 46.875 140.125 C47.143125 139.2175 47.41125 138.31 47.6875 137.375 C47.91824219 136.59898437 48.14898437 135.82296875 48.38671875 135.0234375 C54.76904827 103.55895948 49.5115903 69.86457048 34 42 C33.2265625 40.60201172 33.2265625 40.60201172 32.4375 39.17578125 C27.91498871 31.34741253 22.78579726 23.05371955 16 17 C15.34 17 14.68 17 14 17 C13.72800781 16.40445313 13.45601562 15.80890625 13.17578125 15.1953125 C4.61854483 -0.78198607 -19.67152173 -12.3281648 -36 -18 C-36.73130127 -18.25418701 -37.46260254 -18.50837402 -38.21606445 -18.77026367 C-50.35654282 -22.89883507 -62.10056134 -25.67039762 -75 -26 C-76.07894531 -26.02835938 -77.15789062 -26.05671875 -78.26953125 -26.0859375 C-82.61542117 -26.13848756 -86.94880922 -26.02743321 -91.29296875 -25.9140625 Z " fill="#F5F8FE" transform="translate(318,177)"/>
<path d="M0 0 C0.33 0 0.66 0 1 0 C1 119.46 1 238.92 1 362 C86.8 362 172.6 362 261 362 C261 351.77 261 341.54 261 331 C261.66 331 262.32 331 263 331 C263 341.89 263 352.78 263 364 C175.88 364 88.76 364 -1 364 C-1.04033135 293.33499518 -1.04033135 293.33499518 -1.04882812 263.31445312 C-1.05078461 256.44864906 -1.0528047 249.58284503 -1.05493164 242.71704102 C-1.05519539 241.85707923 -1.05545914 240.99711744 -1.05573088 240.1110962 C-1.06002475 226.4103498 -1.06787613 212.70960781 -1.0771528 199.00886398 C-1.08666196 184.84155593 -1.0920911 170.6742501 -1.09408849 156.50693899 C-1.0953117 148.59436835 -1.09815559 140.68180676 -1.10573006 132.76923943 C-1.14689006 88.50431496 -0.74460544 44.25876542 0 0 Z " fill="#FCFDFE" transform="translate(35,102)"/>
<path d="M0 0 C4.01589475 0.56302246 5.27918134 1.8873517 8.0234375 4.81640625 C8.80460938 5.62851563 9.58578125 6.440625 10.390625 7.27734375 C12.1484375 9.44140625 12.1484375 9.44140625 12.1484375 11.44140625 C12.9528125 11.78171875 12.9528125 11.78171875 13.7734375 12.12890625 C19.38739068 15.23135406 24.67210617 20.01983536 28.1484375 25.44140625 C28.53664648 29.32349604 26.56171811 31.35751236 24.2109375 34.25390625 C22.62109375 36.0859375 22.62109375 36.0859375 21.1484375 37.44140625 C20.4884375 37.44140625 19.8284375 37.44140625 19.1484375 37.44140625 C18.4884375 38.76140625 17.8284375 40.08140625 17.1484375 41.44140625 C16.4884375 41.44140625 15.8284375 41.44140625 15.1484375 41.44140625 C15.1484375 42.10140625 15.1484375 42.76140625 15.1484375 43.44140625 C13.5261921 45.15134059 11.85430325 46.81488309 10.1484375 48.44140625 C9.5915625 49.03953125 9.0346875 49.63765625 8.4609375 50.25390625 C7.1484375 51.44140625 7.1484375 51.44140625 5.1484375 51.44140625 C4.4884375 52.76140625 3.8284375 54.08140625 3.1484375 55.44140625 C2.4884375 55.44140625 1.8284375 55.44140625 1.1484375 55.44140625 C0.8184375 56.43140625 0.4884375 57.42140625 0.1484375 58.44140625 C-0.5115625 58.44140625 -1.1715625 58.44140625 -1.8515625 58.44140625 C-2.5115625 59.76140625 -3.1715625 61.08140625 -3.8515625 62.44140625 C-4.5115625 62.44140625 -5.1715625 62.44140625 -5.8515625 62.44140625 C-6.1196875 63.03953125 -6.3878125 63.63765625 -6.6640625 64.25390625 C-7.85073656 66.43988479 -8.94755363 67.85473219 -10.8515625 69.44140625 C-11.5115625 69.44140625 -12.1715625 69.44140625 -12.8515625 69.44140625 C-13.25375 70.33859375 -13.25375 70.33859375 -13.6640625 71.25390625 C-14.85073656 73.43988479 -15.94755363 74.85473219 -17.8515625 76.44140625 C-18.5115625 76.44140625 -19.1715625 76.44140625 -19.8515625 76.44140625 C-20.25375 77.33859375 -20.25375 77.33859375 -20.6640625 78.25390625 C-21.85073656 80.43988479 -22.94755363 81.85473219 -24.8515625 83.44140625 C-25.5115625 83.44140625 -26.1715625 83.44140625 -26.8515625 83.44140625 C-27.8415625 85.42140625 -27.8415625 85.42140625 -28.8515625 87.44140625 C-29.5115625 87.44140625 -30.1715625 87.44140625 -30.8515625 87.44140625 C-31.25375 88.33859375 -31.25375 88.33859375 -31.6640625 89.25390625 C-32.85073656 91.43988479 -33.94755363 92.85473219 -35.8515625 94.44140625 C-36.5115625 94.44140625 -37.1715625 94.44140625 -37.8515625 94.44140625 C-38.25375 95.33859375 -38.25375 95.33859375 -38.6640625 96.25390625 C-39.85073656 98.43988479 -40.94755363 99.85473219 -42.8515625 101.44140625 C-43.5115625 101.44140625 -44.1715625 101.44140625 -44.8515625 101.44140625 C-45.23828125 102.31539062 -45.23828125 102.31539062 -45.6328125 103.20703125 C-46.94990267 105.62169655 -48.40244634 107.25880802 -50.3515625 109.19140625 C-50.96 109.805 -51.5684375 110.41859375 -52.1953125 111.05078125 C-53.8515625 112.44140625 -53.8515625 112.44140625 -55.8515625 112.44140625 C-56.25375 113.33859375 -56.25375 113.33859375 -56.6640625 114.25390625 C-57.85073656 116.43988479 -58.94755363 117.85473219 -60.8515625 119.44140625 C-61.5115625 119.44140625 -62.1715625 119.44140625 -62.8515625 119.44140625 C-63.25375 120.33859375 -63.25375 120.33859375 -63.6640625 121.25390625 C-64.85073656 123.43988479 -65.94755363 124.85473219 -67.8515625 126.44140625 C-68.5115625 126.44140625 -69.1715625 126.44140625 -69.8515625 126.44140625 C-70.25375 127.33859375 -70.25375 127.33859375 -70.6640625 128.25390625 C-71.85073656 130.43988479 -72.94755363 131.85473219 -74.8515625 133.44140625 C-75.5115625 133.44140625 -76.1715625 133.44140625 -76.8515625 133.44140625 C-77.5115625 134.76140625 -78.1715625 136.08140625 -78.8515625 137.44140625 C-79.5115625 137.44140625 -80.1715625 137.44140625 -80.8515625 137.44140625 C-81.1196875 138.03953125 -81.3878125 138.63765625 -81.6640625 139.25390625 C-82.85073656 141.43988479 -83.94755363 142.85473219 -85.8515625 144.44140625 C-86.5115625 144.44140625 -87.1715625 144.44140625 -87.8515625 144.44140625 C-88.315625 145.40046875 -88.315625 145.40046875 -88.7890625 146.37890625 C-89.8515625 148.44140625 -89.8515625 148.44140625 -90.8515625 149.44140625 C-92.9765625 149.87890625 -92.9765625 149.87890625 -95.8515625 149.44140625 C-99.60693534 146.96354609 -102.65408573 143.79568579 -105.4765625 140.31640625 C-107.68493674 137.43771371 -107.68493674 137.43771371 -110.2265625 135.56640625 C-113.20931212 133.15179941 -115.54055264 130.46602408 -118.0078125 127.5390625 C-122.03901815 122.952712 -126.54262639 118.78082143 -130.90681458 114.5144043 C-134.15002605 111.33798292 -137.38015062 108.14839379 -140.60961914 104.95800781 C-142.31712995 103.27579225 -144.02907911 101.59807028 -145.74536133 99.92480469 C-148.22615089 97.50449905 -150.69058183 95.06854376 -153.15234375 92.62890625 C-153.92411453 91.88294189 -154.69588531 91.13697754 -155.49104309 90.3684082 C-156.1956517 89.66417725 -156.90026031 88.95994629 -157.6262207 88.234375 C-158.25067581 87.62102295 -158.87513092 87.0076709 -159.51850891 86.37573242 C-161.24680632 83.86788808 -161.27030037 82.42958364 -160.8515625 79.44140625 C-159.12452222 77.25375936 -157.4782841 75.43721003 -155.48828125 73.51953125 C-154.94049515 72.97407654 -154.39270905 72.42862183 -153.82832336 71.86663818 C-152.6697908 70.71783513 -151.50525054 69.57506339 -150.33520508 68.43798828 C-148.54374894 66.69596338 -146.77167879 64.93594502 -145.00195312 63.171875 C-143.87348371 62.05749105 -142.74396096 60.94417252 -141.61328125 59.83203125 C-141.08192062 59.30603333 -140.55056 58.7800354 -140.00309753 58.23809814 C-137.62630027 55.93725409 -136.03358733 54.50208119 -132.8515625 53.44140625 C-131.06677246 54.62272644 -131.06677246 54.62272644 -129.12304688 56.43041992 C-128.41688232 57.08134613 -127.71071777 57.73227234 -126.9831543 58.40292358 C-126.279729 59.07562286 -125.57630371 59.74832214 -124.8515625 60.44140625 C-124.23514893 61.02894684 -123.61873535 61.61648743 -122.98364258 62.22183228 C-121.14185104 64.00432134 -119.32182871 65.80645411 -117.5078125 67.6171875 C-116.85325073 68.26842087 -116.19868896 68.91965424 -115.52429199 69.59062195 C-114.15845093 70.95144665 -112.79391822 72.31358573 -111.43066406 73.67700195 C-109.33416981 75.77128056 -107.22976436 77.85739627 -105.125 79.94335938 C-103.79378327 81.27164695 -102.4630365 82.60040574 -101.1328125 83.9296875 C-100.50169556 84.55361893 -99.87057861 85.17755035 -99.22033691 85.82038879 C-94.8515625 90.21254713 -94.8515625 90.21254713 -94.8515625 92.44140625 C-94.1915625 92.44140625 -93.5315625 92.44140625 -92.8515625 92.44140625 C-92.3565625 90.95640625 -92.3565625 90.95640625 -91.8515625 89.44140625 C-89.6017811 86.94840524 -87.7038999 84.8553987 -84.6640625 83.37890625 C-82.31355146 82.16312468 -81.97907981 80.77160869 -80.8515625 78.44140625 C-79.8615625 78.11140625 -78.8715625 77.78140625 -77.8515625 77.44140625 C-77.8515625 76.78140625 -77.8515625 76.12140625 -77.8515625 75.44140625 C-75.47843106 72.86486355 -73.05088421 70.59697442 -70.2890625 68.44140625 C-67.77736149 66.52359807 -67.77736149 66.52359807 -65.9140625 64.00390625 C-63.52523487 61.0359689 -60.77815201 58.86985286 -57.8515625 56.44140625 C-56.84582472 55.11239561 -55.84360842 53.78066824 -54.8515625 52.44140625 C-54.1915625 52.44140625 -53.5315625 52.44140625 -52.8515625 52.44140625 C-52.8515625 51.78140625 -52.8515625 51.12140625 -52.8515625 50.44140625 C-51.41165695 49.23590393 -49.96774866 48.03472384 -48.5 46.86328125 C-45.95492196 44.66800066 -43.9665873 42.0445137 -41.8515625 39.44140625 C-38.99750963 36.43308025 -35.99860711 33.69631214 -32.8515625 31.00390625 C-30.39400818 28.88294004 -28.19263709 26.78802467 -26.1640625 24.25390625 C-23.91455944 21.51802414 -21.60425644 19.6435614 -18.8515625 17.44140625 C-17.645 15.98734375 -17.645 15.98734375 -16.4140625 14.50390625 C-13.79728541 11.37653851 -10.97719283 9.04609819 -7.8515625 6.44140625 C-7.00137718 5.35016229 -6.16769023 4.24585029 -5.3515625 3.12890625 C-2.8515625 0.44140625 -2.8515625 0.44140625 0 0 Z M-2.53445625 2.87820435 C-3.2110523 3.55664398 -3.88764835 4.23508362 -4.58474731 4.93408203 C-5.75002457 6.09523529 -5.75002457 6.09523529 -6.93884277 7.27984619 C-7.79192017 8.14011414 -8.64499756 9.00038208 -9.52392578 9.88671875 C-10.42154633 10.78404724 -11.31916687 11.68137573 -12.24398804 12.605896 C-14.71109995 15.0724323 -17.17198183 17.54510209 -19.63182688 20.01888275 C-22.20141682 22.60094546 -24.77664298 25.17737398 -27.35128784 27.75439453 C-32.22847307 32.63780472 -37.10053621 37.52629237 -41.97079933 42.416605 C-47.51456811 47.98270125 -53.06399317 53.54314332 -58.61391091 59.10310745 C-70.03278656 70.54290809 -81.44450442 81.98982159 -92.8515625 93.44140625 C-96.00096797 91.93807937 -98.14241266 90.39498672 -100.61035156 87.90966797 C-101.33079651 87.18907196 -102.05124146 86.46847595 -102.79351807 85.7260437 C-103.56032898 84.94891022 -104.32713989 84.17177673 -105.1171875 83.37109375 C-105.91058533 82.57486603 -106.70398315 81.77863831 -107.52142334 80.95828247 C-110.05286953 78.41564677 -112.57727053 75.86614277 -115.1015625 73.31640625 C-116.81724867 71.59068872 -118.53338912 69.8654227 -120.25 68.140625 C-124.45580498 63.91277593 -128.65584757 59.67926756 -132.8515625 55.44140625 C-137.0284838 58.953812 -141.06061366 62.52764075 -144.91015625 66.40234375 C-146.22983398 67.72685547 -146.22983398 67.72685547 -147.57617188 69.078125 C-148.47142578 69.98175781 -149.36667969 70.88539063 -150.2890625 71.81640625 C-151.21138672 72.74324219 -152.13371094 73.67007813 -153.08398438 74.625 C-155.34214875 76.89486471 -157.59793192 79.16704163 -159.8515625 81.44140625 C-155.97363806 86.07995182 -151.95119918 90.48387603 -147.66259766 94.74389648 C-147.07650726 95.3301329 -146.49041687 95.91636932 -145.88656616 96.52037048 C-143.97361646 98.43263069 -142.05716337 100.34133711 -140.140625 102.25 C-138.80376655 103.58499084 -137.46713058 104.92020452 -136.13070679 106.25563049 C-132.63130271 109.75123642 -129.1289048 113.24382739 -125.62585449 116.73577881 C-122.04431385 120.30704695 -118.46564094 123.88118627 -114.88671875 127.45507812 C-107.8777886 134.45331866 -100.86568926 141.4483744 -93.8515625 148.44140625 C-87.3804197 143.11094199 -81.50336661 137.2276652 -75.59204102 131.29541016 C-74.46808508 130.17117173 -73.34390808 129.04715428 -72.2195282 127.92333984 C-69.18473905 124.88883628 -66.1530317 121.85127088 -63.1218884 118.81312609 C-59.9473113 115.63227562 -56.76988081 112.45427802 -53.59275818 109.27597046 C-47.5844336 103.26454428 -41.57866158 97.25057471 -35.57381338 91.23567617 C-28.73416858 84.38483379 -21.89166635 77.53684839 -15.04892838 70.68909574 C-0.97996887 56.60969836 13.08541712 42.52673569 27.1484375 28.44140625 C26.20106199 27.32882285 25.25263468 26.21713502 24.30377197 25.1058197 C23.51171041 24.17706732 23.51171041 24.17706732 22.70364761 23.22955227 C18.98429756 18.95312626 14.90249287 15.01084639 10.8984375 11.00390625 C9.98835937 10.08158203 9.07828125 9.15925781 8.140625 8.20898438 C6.83738281 6.9028418 6.83738281 6.9028418 5.5078125 5.5703125 C4.71858398 4.7769751 3.92935547 3.9836377 3.11621094 3.16625977 C0.65342766 1.00750494 -0.01942104 0.73095185 -2.53445625 2.87820435 Z " fill="#FAFCFE" transform="translate(305.8515625,217.55859375)"/>
<path d="M0 0 C5.17812746 2.33940825 8.934623 6.62879739 12.890625 10.58984375 C13.63584412 11.33077774 14.38106323 12.07171173 15.14886475 12.83509827 C16.71799832 14.39850245 18.28453607 15.96451574 19.84863281 17.53295898 C22.24677997 19.93427571 24.6579671 22.32194158 27.0703125 24.70898438 C28.59456014 26.23095992 30.11802496 27.75371993 31.640625 29.27734375 C32.36348694 29.99099594 33.08634888 30.70464813 33.83111572 31.43992615 C34.4956073 32.11064651 35.16009888 32.78136688 35.84472656 33.47241211 C36.43143127 34.0584874 37.01813599 34.64456268 37.62261963 35.24839783 C39.13207924 37.16796398 39.59389425 38.61332037 40 41 C34.85170256 36.69372744 30.04247928 32.17688069 25.31640625 27.4140625 C24.26585304 26.36138687 24.26585304 26.36138687 23.19407654 25.28744507 C20.98116973 23.06898864 18.77178584 20.84706185 16.5625 18.625 C15.05296686 17.11044534 13.54320343 15.59612015 12.03320312 14.08203125 C8.35280298 10.39066901 4.67528043 6.69645931 1 3 C-3.09492916 6.44713883 -7.06493546 9.94124536 -10.83984375 13.7421875 C-12.0918457 14.99902344 -12.0918457 14.99902344 -13.36914062 16.28125 C-14.21669922 17.1371875 -15.06425781 17.993125 -15.9375 18.875 C-16.81212891 19.75414062 -17.68675781 20.63328125 -18.58789062 21.5390625 C-20.72757048 23.6904346 -22.86486597 25.84411792 -25 28 C-21.12207556 32.63854557 -17.09963668 37.04246978 -12.81103516 41.30249023 C-12.22494476 41.88872665 -11.63885437 42.47496307 -11.03500366 43.07896423 C-9.12205396 44.99122444 -7.20560087 46.89993086 -5.2890625 48.80859375 C-3.95220405 50.14358459 -2.61556808 51.47879827 -1.27914429 52.81422424 C2.22025979 56.30983017 5.7226577 59.80242114 9.22570801 63.29437256 C12.80724865 66.8656407 16.38592156 70.43978002 19.96484375 74.01367188 C26.9737739 81.01191241 33.98587324 88.00696815 41 95 C39.515 95.495 39.515 95.495 38 96 C34.22591522 93.70156448 31.13685027 90.2923527 28.375 86.875 C26.16662576 83.99630746 26.16662576 83.99630746 23.625 82.125 C20.64225038 79.71039316 18.31100986 77.02461783 15.84375 74.09765625 C11.81254435 69.51130575 7.30893611 65.33941518 2.94474792 61.07299805 C-0.29846355 57.89657667 -3.52858812 54.70698754 -6.75805664 51.51660156 C-8.46556745 49.834386 -10.17751661 48.15666403 -11.89379883 46.48339844 C-14.37458839 44.0630928 -16.83901933 41.62713751 -19.30078125 39.1875 C-20.07255203 38.44153564 -20.84432281 37.69557129 -21.63948059 36.92700195 C-22.3440892 36.222771 -23.04869781 35.51854004 -23.7746582 34.79296875 C-24.39911331 34.1796167 -25.02356842 33.56626465 -25.66694641 32.93432617 C-27.39540809 30.42624346 -27.4199867 28.98842366 -27 26 C-25.26083695 23.81244433 -23.60257759 21.99522548 -21.6015625 20.078125 C-21.05140472 19.53267029 -20.50124695 18.98721558 -19.93441772 18.42523193 C-18.17599074 16.68813337 -16.40068038 14.96943928 -14.625 13.25 C-13.43641453 12.07792266 -12.24890114 10.90475707 -11.0625 9.73046875 C-2.3932886 1.1966443 -2.3932886 1.1966443 0 0 Z " fill="#EEF3FE" transform="translate(172,271)"/>
<path d="M0 0 C10.23 0 20.46 0 31 0 C31 16.17 31 32.34 31 49 C21 46 21 46 18.15917969 45.14038086 C15.69249402 44.39558391 13.22146624 43.66626569 10.75 42.9375 C9.91082031 42.68162109 9.07164062 42.42574219 8.20703125 42.16210938 C-4.4791713 38.45163359 -17.25314272 37.67153915 -30.375 37.375 C-31.80470747 37.33667527 -33.23439544 37.2976161 -34.6640625 37.2578125 C-38.10919305 37.1634526 -41.55447593 37.07887576 -45 37 C-45 36.67 -45 36.34 -45 36 C-1.20549321 34.96410373 -1.20549321 34.96410373 15 41 C16.16015625 41.40347656 17.3203125 41.80695313 18.515625 42.22265625 C20.35752287 42.88148895 22.19065354 43.56677655 24.00390625 44.30078125 C26.11938313 45.16529861 26.11938313 45.16529861 29 45 C29.33 30.48 29.66 15.96 30 1 C15.645 1.495 15.645 1.495 1 2 C0.505 1.01 0.505 1.01 0 0 Z " fill="#EAF1FE" transform="translate(268,89)"/>
<path d="M0 0 C4.25331827 0.86802414 6.18199992 2.40158324 9.0625 5.625 C9.79647997 9.73528784 9.45410679 11.82476004 7.625 15.5625 C4.36172849 18.1890356 2.29181044 18.29860891 -1.80859375 18.03515625 C-3.9375 17.625 -3.9375 17.625 -6.5 16.125 C-8.5121689 12.62557583 -8.82004888 9.50054073 -7.9375 5.625 C-5.52360696 2.217151 -4.09852524 0.87202665 0 0 Z M-4.25 4.25 C-6.41648298 7.2991242 -6.48374158 8.95737794 -5.9375 12.625 C-5.00152685 14.64451062 -5.00152685 14.64451062 -2.9375 15.625 C0.5625 16.29166667 0.5625 16.29166667 4.0625 15.625 C6.32301003 13.60757918 6.32301003 13.60757918 7.0625 10.625 C6.30077309 7.09335704 5.62378588 5.18628588 3.0625 2.625 C-0.21109086 2.10811723 -1.51522115 2.32826351 -4.25 4.25 Z " fill="#F6F9FE" transform="translate(167.9375,16.375)"/>
<path d="M0 0 C0 3 0 3 -2.26318359 5.58789062 C-3.30080018 6.61825263 -4.34648236 7.64053133 -5.3984375 8.65625 C-5.94859528 9.19979126 -6.49875305 9.74333252 -7.06558228 10.30334473 C-8.82845747 12.04277735 -10.60114892 13.77176772 -12.375 15.5 C-14.13997788 17.22988981 -15.90280164 18.96189677 -17.66299438 20.69665527 C-18.75941544 21.77613569 -19.85890352 22.85251176 -20.96176147 23.92541504 C-23.27404609 26.19260347 -25.19549228 28.29323842 -27 31 C-27.33740234 28.87011719 -27.33740234 28.87011719 -27 26 C-25.26083695 23.81244433 -23.60257759 21.99522548 -21.6015625 20.078125 C-21.05140472 19.53267029 -20.50124695 18.98721558 -19.93441772 18.42523193 C-18.17599074 16.68813337 -16.40068038 14.96943928 -14.625 13.25 C-13.43641453 12.07792266 -12.24890114 10.90475707 -11.0625 9.73046875 C-2.3932886 1.1966443 -2.3932886 1.1966443 0 0 Z " fill="#FBFCFE" transform="translate(172,271)"/>
<path d="M0 0 C0.33 0 0.66 0 1 0 C1.19463069 4.08878314 1.37293179 8.17794459 1.53710938 12.26806641 C1.59496407 13.6549721 1.65702743 15.04170966 1.72363281 16.42822266 C2.52374722 33.21850236 2.52374722 33.21850236 0 40 C-0.99 40.495 -0.99 40.495 -2 41 C-2.12563355 34.46705525 -2.12563355 34.46705525 -1.51586914 32.20019531 C-0.7993067 29.14403787 -0.77661466 26.18300838 -0.68359375 23.046875 C-0.66281265 22.38665344 -0.64203156 21.72643188 -0.62062073 21.04620361 C-0.55549853 18.94756985 -0.49641498 16.84881628 -0.4375 14.75 C-0.39427921 13.32290453 -0.3506638 11.89582095 -0.30664062 10.46875 C-0.19985589 6.97929278 -0.09848434 3.48970247 0 0 Z " fill="#E8F0FE" transform="translate(394,275)"/>
<path d="M0 0 C0.99 1.485 0.99 1.485 2 3 C5.00029626 6.77180101 7.93040977 10.33911408 12 13 C6.97344297 12.76064014 4.44725097 11.27236889 1.125 7.69921875 C-0.57818242 5.12670363 -0.42535438 2.97748067 0 0 Z " fill="#F1F6FE" transform="translate(7,480)"/>
<path d="M0 0 C-0.7734375 0.3403125 -0.7734375 0.3403125 -1.5625 0.6875 C-4.92403127 2.4975553 -7.92911144 4.73996404 -11 7 C-10.28125 3.21875 -10.28125 3.21875 -7.75 1.25 C-4.87860126 -0.05518125 -3.10902534 -0.26648789 0 0 Z " fill="#F0F4FE" transform="translate(21,63)"/>
</svg>
